<svg width="1200" height="760" viewBox="0 0 1200 760" fill="none" xmlns="http://www.w3.org/2000/svg">
  <rect width="1200" height="760" rx="36" fill="#FFF8F5"/>
  <rect x="40" y="40" width="1120" height="680" rx="28" fill="#FFFFFF"/>
  <circle cx="850" cy="242" r="148" fill="#F3DDD5"/>
  <circle cx="918" cy="308" r="92" fill="#E8B8AC" fill-opacity="0.52"/>
  <rect x="126" y="136" width="170" height="18" rx="9" fill="#D7B98A" fill-opacity="0.72"/>
  <rect x="126" y="188" width="410" height="28" rx="14" fill="#DDB8AB"/>
  <rect x="126" y="238" width="470" height="28" rx="14" fill="#EBD8D0"/>
  <rect x="126" y="332" width="620" height="22" rx="11" fill="#E9D8D1"/>
  <rect x="126" y="378" width="562" height="22" rx="11" fill="#E9D8D1"/>
  <rect x="126" y="424" width="588" height="22" rx="11" fill="#E9D8D1"/>
  <rect x="126" y="520" width="154" height="54" rx="27" fill="#A87363"/>
  <rect x="734" y="372" width="280" height="210" rx="102" fill="#FFF8F5" stroke="#EADBD4" stroke-width="4"/>
  <rect x="794" y="420" width="160" height="114" rx="57" fill="#E9C3B7" fill-opacity="0.48"/>
</svg>
